<?xml version="1.0" encoding="utf-8"?>
<!-- Generator: Adobe Illustrator 16.0.0, SVG Export Plug-In . SVG Version: 6.00 Build 0)  -->
<!DOCTYPE svg PUBLIC "-//W3C//DTD SVG 1.1//EN" "http://www.w3.org/Graphics/SVG/1.1/DTD/svg11.dtd">
<svg version="1.1" id="Layer_1" xmlns="http://www.w3.org/2000/svg" xmlns:xlink="http://www.w3.org/1999/xlink" x="0px" y="0px"
	 width="98.304px" height="98.304px" viewBox="178.848 2.048 98.304 98.304" enable-background="new 178.848 2.048 98.304 98.304"
	 xml:space="preserve">
<circle id="left-fill" fill="none" fill-opacity="0.25" cx="228" cy="51.2" r="49.152"/>
<path id="left-point" d="M236.318,69.965c0.196,0.195,0.452,0.294,0.709,0.294c0.258,0,0.514-0.099,0.709-0.294
	c0.393-0.393,0.393-1.027,0-1.418L220.391,51.2l17.346-17.347c0.393-0.392,0.393-1.026,0-1.418s-1.026-0.392-1.418,0l-18.055,18.056
	c-0.392,0.392-0.392,1.026,0,1.418L236.318,69.965z"/>
<path id="left-circle" d="M228,100.352c27.102,0,49.152-22.049,49.152-49.151S255.102,2.048,228,2.048
	c-27.102,0-49.152,22.05-49.152,49.152S200.898,100.352,228,100.352z M228,4.054c25.996,0,47.146,21.149,47.146,47.146
	c0,25.996-21.15,47.146-47.146,47.146S180.854,77.196,180.854,51.2C180.854,25.204,202.004,4.054,228,4.054z"/>
</svg>
