<?xml version="1.0" encoding="utf-8"?>
<!-- Generator: Adobe Illustrator 16.0.0, SVG Export Plug-In . SVG Version: 6.00 Build 0)  -->
<!DOCTYPE svg PUBLIC "-//W3C//DTD SVG 1.1//EN" "http://www.w3.org/Graphics/SVG/1.1/DTD/svg11.dtd">
<svg version="1.1" id="Layer_1" xmlns="http://www.w3.org/2000/svg" xmlns:xlink="http://www.w3.org/1999/xlink" x="0px" y="0px"
	 width="98.304px" height="98.304px" viewBox="178.848 2.048 98.304 98.304" enable-background="new 178.848 2.048 98.304 98.304"
	 xml:space="preserve">
<circle id="right-fill" fill="none" fill-opacity="0.25" cx="228" cy="51.2" r="49.152"/>
<path id="right-point" d="M219.681,32.435c-0.392-0.392-1.027-0.392-1.418,0c-0.392,0.392-0.392,1.027,0,1.418L235.609,51.2
	l-17.347,17.347c-0.392,0.391-0.392,1.025,0,1.418c0.196,0.195,0.453,0.294,0.708,0.294c0.256,0,0.513-0.099,0.71-0.294
	l18.055-18.056c0.393-0.392,0.393-1.026,0-1.418L219.681,32.435z"/>
<path id="right-circle" d="M228,2.048c-27.102,0-49.152,22.05-49.152,49.152s22.05,49.151,49.152,49.151
	c27.102,0,49.152-22.049,49.152-49.151S255.102,2.048,228,2.048z M228,98.346c-25.996,0-47.146-21.149-47.146-47.146
	c0-25.997,21.15-47.146,47.146-47.146s47.146,21.149,47.146,47.146C275.146,77.196,253.996,98.346,228,98.346z"/>
</svg>
