<?xml version="1.0" encoding="utf-8"?>
<!-- Generator: Adobe Illustrator 16.0.0, SVG Export Plug-In . SVG Version: 6.00 Build 0)  -->
<!DOCTYPE svg PUBLIC "-//W3C//DTD SVG 1.1//EN" "http://www.w3.org/Graphics/SVG/1.1/DTD/svg11.dtd">
<svg version="1.1" id="Layer_1" xmlns="http://www.w3.org/2000/svg" xmlns:xlink="http://www.w3.org/1999/xlink" x="0px" y="0px"
	 width="612px" height="523.551px" viewBox="0 0 612 523.551" enable-background="new 0 0 612 523.551" xml:space="preserve">
<path id="bubble-path" fill="#000" d="M113.342-1C58.636-0.082,0,35.518,0,112.459v187.088
	c0.655,51.438,32.889,105.801,100.668,112.229c0,19.688,0,111.775,0,111.775S260.069,417.417,266.936,413.01
	c8.354,0,231.612,0,231.612,0C553.364,412.301,612,376.469,612,299.547V112.312C611.241,57.55,575.391-1,498.548-1H113.342z"/>
<path id="bubble-fill" opacity="0.8" fill="#FFFFFF" d="M28.69,299.424V112.459c0-81.237,76.2-84.701,84.891-84.774h384.967
	c81.133,0,84.688,75.98,84.769,84.762v187.101c0,81.213-76.328,84.701-84.892,84.775H258.276c0,0-96.849,64.199-128.918,85.605
	c0-28.219,0-85.605,0-85.605h-16.016C32.228,384.315,28.758,307.987,28.69,299.424z"/>
</svg>
